HIERARCHY
ROOT reference
{
  OFFSET -65.3212 -1.93545 -120.338
  CHANNELS 6 Xposition Yposition Zposition Zrotation Xrotation Yrotation
  JOINT Hips
  {
    OFFSET 0 78.7191 0
    CHANNELS 3 Zrotation Xrotation Yrotation
    JOINT Chest
    {
      OFFSET 0 8.7983 -4.7612
      CHANNELS 3 Zrotation Xrotation Yrotation
      JOINT Chest2
      {
        OFFSET 0 8.0291 0.4195
        CHANNELS 3 Zrotation Xrotation Yrotation
        JOINT Chest3
        {
          OFFSET 0 9.9351 -2.2114
          CHANNELS 3 Zrotation Xrotation Yrotation
          JOINT Neck
          {
            OFFSET 0 22.3885 -0.4656
            CHANNELS 3 Zrotation Xrotation Yrotation
            JOINT Head
            {
              OFFSET -0.0001 12.643 3.4389
              CHANNELS 3 Zrotation Xrotation Yrotation
              End Site
              {
                OFFSET 0.0001 17.6655 0.5274
              }
            }
          }
          JOINT LeftCollar
          {
            OFFSET 2.2603 21.606 7.4023
            CHANNELS 3 Zrotation Xrotation Yrotation
            JOINT LeftShoulder
            {
              OFFSET 13.5163 -1.1332 -5.0146
              CHANNELS 3 Zrotation Xrotation Yrotation
              JOINT LeftElbow
              {
                OFFSET -0.0995 -28.05 -0.2431
                CHANNELS 3 Zrotation Xrotation Yrotation
                JOINT LeftWrist
                {
                  OFFSET 0.0679 -23.3996 -0.1402
                  CHANNELS 3 Zrotation Xrotation Yrotation
                  JOINT LeftFinger1
                  {
                    OFFSET 0.7932 -9.069 2.5189
                    CHANNELS 3 Zrotation Xrotation Yrotation
                    JOINT LeftFinger11
                    {
                      OFFSET -0.8272 -3.3923 0.5977
                      CHANNELS 3 Zrotation Xrotation Yrotation
                      JOINT LeftFinger12
                      {
                        OFFSET -0.5649 -2.3158 0.4082
                        CHANNELS 3 Zrotation Xrotation Yrotation
                        End Site
                        {
                          OFFSET -0.4919 -1.6479 0.2673
                        }
                      }
                    }
                  }
                  JOINT LeftFinger2
                  {
                    OFFSET 0.9159 -9.2044 0.2193
                    CHANNELS 3 Zrotation Xrotation Yrotation
                    JOINT LeftFinger21
                    {
                      OFFSET 0.0117 -4.1944 -0.0248
                      CHANNELS 3 Zrotation Xrotation Yrotation
                      JOINT LeftFinger22
                      {
                        OFFSET 0.0071 -2.3249 -0.0142
                        CHANNELS 3 Zrotation Xrotation Yrotation
                        End Site
                        {
                          OFFSET -0.1475 -2.0882 0.0028
                        }
                      }
                    }
                  }
                  JOINT LeftFinger3
                  {
                    OFFSET 0.6113 -8.7231 -2.0637
                    CHANNELS 3 Zrotation Xrotation Yrotation
                    JOINT LeftFinger31
                    {
                      OFFSET -0.1927 -3.8059 -0.2383
                      CHANNELS 3 Zrotation Xrotation Yrotation
                      JOINT LeftFinger32
                      {
                        OFFSET -0.1091 -2.1688 -0.1362
                        CHANNELS 3 Zrotation Xrotation Yrotation
                        End Site
                        {
                          OFFSET -0.2358 -1.9176 -0.0906
                        }
                      }
                    }
                  }
                  JOINT LeftFinger4
                  {
                    OFFSET -0.6151 -8.0947 -3.5641
                    CHANNELS 3 Zrotation Xrotation Yrotation
                    JOINT LeftFinger41
                    {
                      OFFSET -0.4882 -2.341 -0.6462
                      CHANNELS 3 Zrotation Xrotation Yrotation
                      JOINT LeftFinger42
                      {
                        OFFSET -0.3575 -1.7167 -0.4742
                        CHANNELS 3 Zrotation Xrotation Yrotation
                        End Site
                        {
                          OFFSET -0.4187 -1.5237 -0.3496
                        }
                      }
                    }
                  }
                  JOINT LeftFinger0
                  {
                    OFFSET -1.42 -1.8761 1.4223
                    CHANNELS 3 Zrotation Xrotation Yrotation
                    JOINT LeftFinger01
                    {
                      OFFSET -1.1471 -3.4929 2.6334
                      CHANNELS 3 Zrotation Xrotation Yrotation
                      JOINT LeftFinger02
                      {
                        OFFSET -0.823 -2.3 1.6571
                        CHANNELS 3 Zrotation Xrotation Yrotation
                        End Site
                        {
                          OFFSET -0.5822 -1.6914 1.1582
                        }
                      }
                    }
                  }
                }
              }
            }
          }
          JOINT RightCollar
          {
            OFFSET -2.2603 21.606 7.4023
            CHANNELS 3 Zrotation Xrotation Yrotation
            JOINT RightShoulder
            {
              OFFSET -13.5187 -1.1334 -5.0155
              CHANNELS 3 Zrotation Xrotation Yrotation
              JOINT RightElbow
              {
                OFFSET 0.0994 -28.0499 -0.2431
                CHANNELS 3 Zrotation Xrotation Yrotation
                JOINT RightWrist
                {
                  OFFSET -0.0679 -23.3996 -0.1402
                  CHANNELS 3 Zrotation Xrotation Yrotation
                  JOINT RightFinger1
                  {
                    OFFSET -0.7932 -9.0691 2.5189
                    CHANNELS 3 Zrotation Xrotation Yrotation
                    JOINT RightFinger11
                    {
                      OFFSET 0.8272 -3.3923 0.5977
                      CHANNELS 3 Zrotation Xrotation Yrotation
                      JOINT RightFinger12
                      {
                        OFFSET 0.565 -2.3158 0.4082
                        CHANNELS 3 Zrotation Xrotation Yrotation
                        End Site
                        {
                          OFFSET 0.4919 -1.6479 0.2673
                        }
                      }
                    }
                  }
                  JOINT RightFinger2
                  {
                    OFFSET -0.916 -9.2044 0.2193
                    CHANNELS 3 Zrotation Xrotation Yrotation
                    JOINT RightFinger21
                    {
                      OFFSET -0.0117 -4.1944 -0.0248
                      CHANNELS 3 Zrotation Xrotation Yrotation
                      JOINT RightFinger22
                      {
                        OFFSET -0.0071 -2.3249 -0.0142
                        CHANNELS 3 Zrotation Xrotation Yrotation
                        End Site
                        {
                          OFFSET 0.1475 -2.0882 0.0028
                        }
                      }
                    }
                  }
                  JOINT RightFinger3
                  {
                    OFFSET -0.6113 -8.7231 -2.0637
                    CHANNELS 3 Zrotation Xrotation Yrotation
                    JOINT RightFinger31
                    {
                      OFFSET 0.1927 -3.8059 -0.2383
                      CHANNELS 3 Zrotation Xrotation Yrotation
                      JOINT RightFinger32
                      {
                        OFFSET 0.1091 -2.1688 -0.1362
                        CHANNELS 3 Zrotation Xrotation Yrotation
                        End Site
                        {
                          OFFSET 0.2358 -1.9176 -0.0906
                        }
                      }
                    }
                  }
                  JOINT RightFinger4
                  {
                    OFFSET 0.6151 -8.0947 -3.564
                    CHANNELS 3 Zrotation Xrotation Yrotation
                    JOINT RightFinger41
                    {
                      OFFSET 0.4882 -2.341 -0.6462
                      CHANNELS 3 Zrotation Xrotation Yrotation
                      JOINT RightFinger42
                      {
                        OFFSET 0.3574 -1.7166 -0.4742
                        CHANNELS 3 Zrotation Xrotation Yrotation
                        End Site
                        {
                          OFFSET 0.4187 -1.5237 -0.3496
                        }
                      }
                    }
                  }
                  JOINT RightFinger0
                  {
                    OFFSET 1.4199 -1.8761 1.4221
                    CHANNELS 3 Zrotation Xrotation Yrotation
                    JOINT RightFinger01
                    {
                      OFFSET 1.1472 -3.4929 2.6336
                      CHANNELS 3 Zrotation Xrotation Yrotation
                      JOINT RightFinger02
                      {
                        OFFSET 0.8229 -2.3 1.6571
                        CHANNELS 3 Zrotation Xrotation Yrotation
                        End Site
                        {
                          OFFSET 0.5822 -1.6914 1.1582
                        }
                      }
                    }
                  }
                }
              }
            }
          }
        }
      }
    }
    JOINT RightHip
    {
      OFFSET -9.412 3.9771 -0.7758
      CHANNELS 3 Zrotation Xrotation Yrotation
      JOINT RightKnee
      {
        OFFSET -0.7531 -40.938 0
        CHANNELS 3 Zrotation Xrotation Yrotation
        JOINT RightAnkle
        {
          OFFSET 0 -40.1986 0
          CHANNELS 3 Zrotation Xrotation Yrotation
          JOINT RightToe
          {
            OFFSET 0 -4.4182 9.239
            CHANNELS 3 Zrotation Xrotation Yrotation
            End Site
            {
              OFFSET 0 0 6.1981
            }
          }
        }
      }
    }
    JOINT LeftHip
    {
      OFFSET 9.4119 3.9773 -0.7758
      CHANNELS 3 Zrotation Xrotation Yrotation
      JOINT LeftKnee
      {
        OFFSET 0.7532 -40.9383 0
        CHANNELS 3 Zrotation Xrotation Yrotation
        JOINT LeftAnkle
        {
          OFFSET 0 -40.1986 0
          CHANNELS 3 Zrotation Xrotation Yrotation
          JOINT LeftToe
          {
            OFFSET 0 -4.4182 9.239
            CHANNELS 3 Zrotation Xrotation Yrotation
            End Site
            {
              OFFSET 0 0 6.1981
            }
          }
        }
      }
    }
  }
}
MOTION
Frames:	4
Frame Time:	0.0333333
5.10529 -9.68271 3.51877 0 0 -0 4.84122 -4.77965 -4.14321 4.30547 2.49208 -4.71828 8.81243 4.61426 -9.62239 8.81245 4.61427 -9.62242 -2.63895 -12.7932 -39.7938 -1.39919 -5.01398 -33.5234 11.7395 -1.76378 -14.5205 -32.9351 41.3737 55.7837 -13.9593 -37.3964 20.7496 -0.289783 15.9176 -50.5399 5.02449 -11.0472 0.445021 -0.207223 -2.65156 -1.09267 7.1471 -4.39199 0.656932 11.6328 -6.87042 1.84386 -0.862215 -5.01955 0.617265 11.5661 -6.99301 1.84007 11.226 -7.45001 2.11021 -0.844411 -5.57672 1.47399 11.2504 -7.42758 2.20736 17.6546 0.801804 -2.56034 -0.106675 -5.12879 3.85878 11.3019 -7.28538 2.57435 -7.05204 -9.58319 1.38837 4.63519e-006 7.02167e-006 2.13945e-005 -4.42603 -5.97732 1.00513 -9.99797 -1.54115 5.56266 -28.1738 2.52858 -19.0057 18.6366 -5.20513 22.763 4.80752 3.64485 62.9591 -3.4373 -8.45032 0.04162 -0.0528545 -0.498328 0.586134 -4.12143 -1.41065 0.0159638 -7.53576 -2.39436 -0.340353 0.220312 -1.17945 -0.145318 -7.49096 -2.52602 -0.343852 -12.155 -4.59817 -1.08302 0.374973 -2.47699 -1.06968 -12.1679 -4.55877 -1.17226 -24.5806 0.412474 4.65407 -0.397998 -1.93804 -3.47237 -12.2022 -4.37237 -1.4862 3.30201 -8.03337 -2.26847 -1.16999 2.6422 0.85789 1.68632 -4.00084 -1.18946 2.03619 -18.1045 19.8318 17.3046 56.4259 -20.7391 -1.78687 -37.8222 -15.3088 0.977596 6.61153 -0.436375 -1.35407 -31.5686 -12.7398 -5.2878 41.6472 -8.44003 -5.42778 -8.43378 -14.8084 1.48641 -10.9725 0.142713 
5.11597 -9.68245 3.55537 0 0 -0 4.79605 -4.76006 -4.00058 4.33847 2.4838 -4.72696 8.87796 4.59426 -9.64025 8.87799 4.59427 -9.64029 -2.68351 -12.7385 -40.0037 -1.29909 -4.8 -33.5631 11.5156 -1.76547 -14.7233 -33.049 41.3432 56.002 -13.908 -37.4928 20.9274 -0.291382 15.8527 -50.9121 5.04194 -11.0603 0.444768 -0.207955 -2.65993 -1.0967 7.16598 -4.40343 0.65939 11.6746 -6.89769 1.85313 -0.865436 -5.03924 0.617354 11.6129 -7.02003 1.85026 11.273 -7.4785 2.12426 -0.847609 -5.59959 1.47731 11.2956 -7.45587 2.219 17.6959 0.778914 -2.54402 -0.106904 -5.15092 3.87212 11.3463 -7.31232 2.58709 -7.05206 -9.58318 1.38841 -1.87368e-006 5.9706e-006 2.67686e-005 -4.42602 -5.97731 1.00513 -10.1574 -1.54435 5.474 -28.1021 2.49558 -18.9754 18.4841 -5.11904 22.8052 4.78569 3.53121 62.9911 -3.43731 -8.45033 0.0416597 -0.0528755 -0.4983 0.586121 -4.12143 -1.41061 0.0158494 -7.58511 -2.41386 -0.343817 0.221681 -1.18746 -0.145732 -7.54004 -2.54238 -0.347169 -12.203 -4.61455 -1.09131 0.376493 -2.48758 -1.07287 -12.219 -4.57722 -1.1792 -24.6316 0.399181 4.64139 -0.39968 -1.94746 -3.48571 -12.2567 -4.39068 -1.4943 3.302 -8.03339 -2.26853 -1.16998 2.64219 0.857886 1.68631 -4.00084 -1.18943 1.99743 -18.1049 19.615 17.2954 56.4305 -20.7349 -1.77114 -37.8679 -15.2293 0.985551 6.66195 -0.440317 -1.27207 -31.9176 -12.5694 -5.44599 41.991 -8.3249 -5.32383 -8.39772 -15.1497 1.48643 -10.9727 0.14271 
5.14445 -9.68246 3.57207 0 0 -0 4.78662 -4.74268 -3.99118 4.34714 2.48323 -4.72138 8.89499 4.59281 -9.62935 8.89504 4.59283 -9.6294 -2.71178 -12.67 -40.1651 -1.10855 -4.51998 -33.5401 11.4987 -1.76569 -14.7478 -33.0525 41.3193 55.999 -13.9203 -37.3871 21.0091 -0.364479 15.8172 -51.2169 5.0594 -11.0734 0.444554 -0.208714 -2.6683 -1.10074 7.1849 -4.41486 0.661842 11.7221 -6.9286 1.8637 -0.868792 -5.05897 0.617406 11.6597 -7.04704 1.86047 11.3199 -7.50699 2.13836 -0.850904 -5.62246 1.48058 11.3407 -7.48414 2.23062 17.7372 0.75602 -2.52769 -0.107041 -5.17306 3.88541 11.394 -7.34125 2.6008 -7.05207 -9.58321 1.38848 1.35307e-006 1.47563e-005 3.69573e-005 -4.42603 -5.97732 1.00513 -10.2003 -1.54477 5.4695 -28.0901 2.51054 -18.9774 18.3851 -5.07486 22.7922 4.86176 3.42618 62.9208 -3.43729 -8.45031 0.0417663 -0.0528632 -0.498312 0.586128 -4.12143 -1.41062 0.0158442 -7.6345 -2.43332 -0.347256 0.223105 -1.19551 -0.146133 -7.59276 -2.55992 -0.350782 -12.251 -4.63093 -1.0996 0.377949 -2.49818 -1.07603 -12.2702 -4.59567 -1.18613 -24.6826 0.385888 4.62877 -0.401404 -1.95689 -3.49908 -12.3113 -4.409 -1.50241 3.30197 -8.03339 -2.26863 -1.16999 2.64219 0.857902 1.68631 -4.00086 -1.18944 1.9793 -18.0579 19.588 17.2446 56.3798 -20.6961 -1.7493 -37.8814 -15.2258 0.985833 6.66274 -0.440358 -1.35958 -31.6026 -12.7166 -5.28826 41.6984 -8.41218 -5.34781 -8.43604 -15.0343 1.48645 -10.9729 0.142716 
5.17285 -9.67919 3.61983 0 0 -0 4.77954 -4.72954 -3.99297 4.35877 2.48983 -4.71586 8.91867 4.60542 -9.6193 8.9187 4.60543 -9.61934 -2.70714 -12.6885 -40.2516 -0.928865 -4.36259 -33.5037 11.4701 -1.76584 -14.7677 -33.0578 41.2548 55.941 -13.8288 -37.2883 21.1142 -0.428879 15.827 -51.154 5.07684 -11.0865 0.444304 -0.20947 -2.67667 -1.10478 7.20381 -4.42628 0.664315 11.7695 -6.9595 1.87429 -0.872393 -5.07976 0.617429 11.7065 -7.07402 1.8707 11.3668 -7.53545 2.15246 -0.854131 -5.64532 1.48384 11.3859 -7.51239 2.2423 17.7845 0.729846 -2.50895 -0.107145 -5.19523 3.8987 11.4417 -7.37018 2.61451 -7.05204 -9.5832 1.38833 -1.93455e-005 3.69892e-005 5.02586e-005 -4.42602 -5.97731 1.00513 -10.2566 -1.54535 5.4621 -28.0782 2.50979 -18.9797 18.3005 -5.05384 22.7684 4.86007 3.33843 63.016 -3.43733 -8.45031 0.0415681 -0.0528926 -0.498341 0.586139 -4.12143 -1.41061 0.015837 -7.68386 -2.4528 -0.350719 0.224594 -1.204 -0.146559 -7.64548 -2.57748 -0.354396 -12.3049 -4.64929 -1.10892 0.379518 -2.50934 -1.07936 -12.3213 -4.61409 -1.19312 -24.7336 0.372583 4.61612 -0.403011 -1.96633 -3.51241 -12.3658 -4.42727 -1.51053 3.30201 -8.03338 -2.2684 -1.16999 2.64217 0.857926 1.68633 -4.00086 -1.1894 1.94936 -18.0663 19.5601 17.2594 56.3951 -20.6953 -1.72584 -37.9073 -15.1994 0.986107 6.66354 -0.440378 -1.37359 -31.8721 -12.7524 -5.44153 42.0207 -8.32617 -5.28151 -8.50077 -14.9964 1.48647 -10.9731 0.142725 
